<?xml version="1.0" encoding="iso-8859-1"?>
<!-- Generator: Adobe Illustrator 24.1.2, SVG Export Plug-In . SVG Version: 6.00 Build 0)  -->
<svg version="1.1" baseProfile="basic" id="Layer_1"
	 xmlns="http://www.w3.org/2000/svg" xmlns:xlink="http://www.w3.org/1999/xlink" x="0px" y="0px" viewBox="0 0 48 48"
	 xml:space="preserve">
<path style="fill:#263238;" d="M13.499,31.607c-1.243,4.843-1.83,5.853-3.174,7.335c-1.067,1.176-1.832,0.579-2.153-0.368
	c-0.609-1.798-0.278-8.655,3.989-12.699L13.499,31.607z"/>
<path style="fill:#263238;" d="M38,43H27L16.247,8.081C18.294,6.251,21.213,5,25,5c10,0,13,11.297,13,20.541C38,30.932,38,43,38,43z
	"/>
<path style="fill:#F9FBE7;" d="M16.247,8.081C11.923,12.06,11,19.379,11,25.615C11,30.984,11,43,11,43h16c0-7.159,2-16.317,2-23.476
	C29,9,23,7.058,16.247,8.081z"/>
<circle style="fill:#212121;" cx="13" cy="16" r="3"/>
<ellipse transform="matrix(0.8126 -0.5829 0.5829 0.8126 -6.4683 9.7241)" style="fill:#FAFAFA;" cx="11.885" cy="14.919" rx="1.345" ry="0.906"/>
<path style="fill:#FDD835;" d="M7.354,18.772C9.094,18.315,17,17,17,17c0.518,0.333,0.992,0.73,0.992,1.565
	c0,0.777-0.451,1.124-0.992,1.435c0,0-7.918-0.573-9.66-0.912C6.86,18.995,6.943,18.88,7.354,18.772z"/>
<circle style="fill:#212121;" cx="23" cy="16" r="3"/>
<ellipse transform="matrix(0.8126 -0.5829 0.5829 0.8126 -4.5938 15.553)" style="fill:#FAFAFA;" cx="21.885" cy="14.919" rx="1.345" ry="0.906"/>
<path style="fill:#FBC02D;" d="M17,20c0.413-0.238,0.769-0.499,0.917-0.953l-6.708,0.483C13.942,19.779,17,20,17,20z"/>
<path style="fill:#263238;" d="M31,26c-3,4-7.723,10.347-8.038,12.322C22.712,39.891,23.5,40,24.5,40S33,40,34,30L31,26z"/>
</svg>