<?xml version="1.0" encoding="iso-8859-1"?><!-- Generator: Adobe Illustrator 23.0.1, SVG Export Plug-In . SVG Version: 6.00 Build 0)  --><svg xmlns="http://www.w3.org/2000/svg" xmlns:xlink="http://www.w3.org/1999/xlink" viewBox="0 0 48 48" width="48px" height="48px"><path style="fill:none;stroke:#00796B;stroke-width:3;stroke-linecap:round;stroke-miterlimit:10;" d="M3.5,34.5  C3.5,29.253,7.753,24,13,24"/><path style="fill:none;stroke:#00796B;stroke-width:3;stroke-linecap:round;stroke-miterlimit:10;" d="M44.5,14.5  c0,5.247-4.253,9.5-9.5,9.5"/><line style="fill:none;stroke:#00796B;stroke-width:3;stroke-linecap:round;stroke-miterlimit:10;" x1="19.5" y1="36.5" x2="19.5" y2="44.5"/><line style="fill:none;stroke:#00796B;stroke-width:3;stroke-linecap:round;stroke-miterlimit:10;" x1="28.5" y1="36.5" x2="28.5" y2="44.5"/><path style="fill:#00BFA5;" d="M34,37H14c-1.105,0-2-0.895-2-2V5c0-1.105,0.895-2,2-2h20c1.105,0,2,0.895,2,2v30  C36,36.105,35.105,37,34,37z"/><path style="fill:#E0F2F1;" d="M32,19H16c-0.552,0-1-0.448-1-1V7c0-0.552,0.448-1,1-1h16c0.552,0,1,0.448,1,1v11  C33,18.552,32.552,19,32,19z"/><circle style="fill:#212121;" cx="18.5" cy="10.5" r="1.5"/><circle style="fill:#212121;" cx="29.5" cy="10.5" r="1.5"/><path style="fill:none;stroke:#212121;stroke-miterlimit:10;" d="M26.5,13c0,1.381-1.119,2.5-2.5,2.5s-2.5-1.119-2.5-2.5"/><rect x="15" y="21" style="fill:#212121;" width="12" height="2"/><circle style="fill:#212121;" cx="32" cy="22" r="1"/><circle style="fill:#76FF03;" cx="33" cy="27" r="1"/><rect x="17" y="25" style="fill:#FFEA00;" width="2" height="6"/><rect x="17" y="25" transform="matrix(5.366025e-11 -1 1 5.366025e-11 -10 46)" style="fill:#FFEA00;" width="2" height="6"/><path style="fill:#212121;" d="M18,35h-2c-0.552,0-1-0.448-1-1l0,0c0-0.552,0.448-1,1-1h2c0.552,0,1,0.448,1,1l0,0  C19,34.552,18.552,35,18,35z"/><path style="fill:#212121;" d="M24,35h-2c-0.552,0-1-0.448-1-1l0,0c0-0.552,0.448-1,1-1h2c0.552,0,1,0.448,1,1l0,0  C25,34.552,24.552,35,24,35z"/><circle style="fill:#FF3D00;" cx="30.5" cy="32.5" r="2.5"/><polygon style="fill:#84FFFF;" points="28,25 26,28 30,28 "/></svg>